<?xml version="1.0" encoding="UTF-8"?>
<svg xmlns="http://www.w3.org/2000/svg" xmlns:xlink="http://www.w3.org/1999/xlink" width="24px" height="24px" viewBox="0 0 24 24" version="1.1">
<g id="surface1">
<path style=" stroke:none;fill-rule:nonzero;fill:rgb(4.705882%,59.607843%,41.176471%);fill-opacity:1;" d="M 0.980469 13.996094 L 0.980469 21.5 C 0.980469 22.878906 2.105469 24 3.484375 24 L 21.488281 24 C 22.871094 24 23.992188 22.878906 23.992188 21.5 L 23.992188 13.996094 Z M 0.980469 13.996094 "/>
<path style=" stroke:none;fill-rule:nonzero;fill:rgb(4.705882%,59.607843%,41.176471%);fill-opacity:1;" d="M 11.851562 2.289062 L 8.109375 3.175781 L 11.246094 7.789062 L 15.300781 6.867188 Z M 11.851562 2.289062 "/>
<path style=" stroke:none;fill-rule:nonzero;fill:rgb(4.705882%,59.607843%,41.176471%);fill-opacity:1;" d="M 7.070312 3.421875 L 3.035156 4.378906 L 6.136719 8.949219 L 10.199219 8.027344 Z M 7.070312 3.421875 "/>
<path style=" stroke:none;fill-rule:nonzero;fill:rgb(4.705882%,59.607843%,41.176471%);fill-opacity:1;" d="M 23.972656 4.363281 L 23.125 1.136719 C 22.925781 0.351562 22.121094 -0.144531 21.328125 0.0390625 L 17.96875 0.835938 L 21.15625 5.539062 L 23.601562 4.980469 C 23.734375 4.953125 23.847656 4.867188 23.917969 4.753906 C 23.988281 4.636719 24.007812 4.496094 23.972656 4.363281 Z M 23.972656 4.363281 "/>
<path style=" stroke:none;fill-rule:nonzero;fill:rgb(4.705882%,59.607843%,41.176471%);fill-opacity:1;" d="M 16.925781 1.082031 L 12.914062 2.035156 L 16.367188 6.625 L 20.109375 5.773438 Z M 16.925781 1.082031 "/>
<path style=" stroke:none;fill-rule:nonzero;fill:rgb(4.705882%,59.607843%,41.176471%);fill-opacity:1;" d="M 6.023438 8.996094 L 4.421875 12.996094 L 8.347656 12.996094 L 9.949219 8.996094 Z M 6.023438 8.996094 "/>
<path style=" stroke:none;fill-rule:nonzero;fill:rgb(4.705882%,59.607843%,41.176471%);fill-opacity:1;" d="M 11.023438 8.996094 L 9.425781 12.996094 L 13.347656 12.996094 L 14.949219 8.996094 Z M 11.023438 8.996094 "/>
<path style=" stroke:none;fill-rule:nonzero;fill:rgb(4.705882%,59.607843%,41.176471%);fill-opacity:1;" d="M 23.492188 8.996094 L 21.027344 8.996094 L 19.429688 12.996094 L 23.992188 12.996094 L 23.992188 9.496094 C 23.992188 9.21875 23.765625 8.996094 23.492188 8.996094 Z M 23.492188 8.996094 "/>
<path style=" stroke:none;fill-rule:nonzero;fill:rgb(4.705882%,59.607843%,41.176471%);fill-opacity:1;" d="M 16.027344 8.996094 L 14.425781 12.996094 L 18.347656 12.996094 L 19.949219 8.996094 Z M 16.027344 8.996094 "/>
<path style=" stroke:none;fill-rule:nonzero;fill:rgb(4.705882%,59.607843%,41.176471%);fill-opacity:1;" d="M 1.992188 4.628906 L 1.179688 4.820312 C 0.78125 4.910156 0.445312 5.152344 0.230469 5.496094 C 0.0195312 5.84375 -0.0429688 6.253906 0.0546875 6.648438 L 0.980469 10.3125 L 0.980469 12.996094 L 3.34375 12.996094 L 4.847656 9.242188 L 5.089844 9.1875 Z M 1.992188 4.628906 "/>
</g>
</svg>
